<?xml version="1.0" encoding="utf-8"?>
<!-- Generator: Adobe Illustrator 18.0.0, SVG Export Plug-In . SVG Version: 6.00 Build 0)  -->
<!DOCTYPE svg PUBLIC "-//W3C//DTD SVG 1.1//EN" "http://www.w3.org/Graphics/SVG/1.1/DTD/svg11.dtd">
<svg version="1.1" id="distance" xmlns="http://www.w3.org/2000/svg" xmlns:xlink="http://www.w3.org/1999/xlink" x="0px" y="0px"
	 viewBox="0 0 64 64" style="enable-background:new 0 0 64 64;" xml:space="preserve">
<style type="text/css">
	.st0{fill:#FFB03B;}
	.st1{fill:#FFFFFF;}
</style>
<path class="st0" d="M32.8,59.1h-1.7C16.2,59.1,4,47,4,32v0C4,17,16.2,4.9,31.2,4.9h1.7C47.8,4.9,60,17,60,32v0
	C60,47,47.8,59.1,32.8,59.1z"/>
<g>
	<path class="st1" d="M15.7,28.5V22h-1.8l1-1.9h3v8.5H15.7z"/>
	<path class="st1" d="M27.1,28.5h-6.6l3.8-4.6c0.2-0.3,0.4-0.5,0.5-0.8s0.2-0.4,0.2-0.6c0-0.3-0.1-0.5-0.3-0.7s-0.4-0.3-0.7-0.3
		c-0.4,0-0.6,0.1-0.8,0.4s-0.3,0.6-0.3,1V23h-2.1V23c0-1,0.3-1.7,0.9-2.3s1.3-0.8,2.3-0.8c1,0,1.7,0.2,2.3,0.7s0.9,1.2,0.9,2
		c0,0.4-0.1,0.8-0.3,1.2S26.4,24.5,26,25l-1.5,1.7h2.6V28.5z"/>
	<path class="st1" d="M32.4,28.5v-8.6h2.3v3.9l2.7-3.9h2.7L37,24.1l3.4,4.4h-2.9l-2.8-3.8v3.8H32.4z"/>
	<path class="st1" d="M51,28.5h-2.2l-0.5-3.7c0-0.3-0.1-0.6-0.1-0.9s-0.1-0.7-0.1-1c-0.1,0.4-0.2,0.8-0.3,1.4c0,0.1-0.1,0.2-0.1,0.3
		l-1.2,4H45l-1.2-4c0-0.1,0-0.1-0.1-0.3c-0.2-0.5-0.3-1-0.3-1.4c0,0.3-0.1,0.6-0.1,1s-0.1,0.6-0.1,1l-0.5,3.7h-2.2l1.3-8.6h2.3
		l1.3,4.4c0,0,0,0.1,0,0.2c0.1,0.4,0.2,0.7,0.2,1c0-0.2,0-0.3,0.1-0.5s0.1-0.4,0.2-0.7l1.3-4.4h2.3L51,28.5z"/>
	<path class="st1" d="M12.7,42.9l3-8.6h2.9l3,8.6h-2.3l-0.4-1.5h-3.3L15,42.9H12.7z M16,39.7h2.3l-0.9-2.8c0-0.1-0.1-0.2-0.1-0.4
		s-0.1-0.4-0.2-0.7c-0.1,0.2-0.1,0.4-0.1,0.6s-0.1,0.4-0.1,0.6L16,39.7z"/>
	<path class="st1" d="M28,34.3l1.1,4.1c0.1,0.2,0.1,0.4,0.1,0.6s0.1,0.4,0.1,0.7c0.1-0.3,0.1-0.6,0.1-0.8s0.1-0.4,0.1-0.5l1-4.1H33
		l-2.4,8.6h-2.2l-1.1-3.7c0-0.1-0.1-0.4-0.2-0.8c0-0.2-0.1-0.3-0.1-0.4c0,0.1,0,0.2-0.1,0.3c-0.1,0.4-0.2,0.6-0.2,0.8l-1,3.7h-2.2
		l-2.4-8.6h2.4l1,4.1c0,0.2,0.1,0.4,0.1,0.6s0.1,0.4,0.1,0.7c0-0.2,0.1-0.3,0.1-0.5s0.1-0.4,0.2-0.8l1.1-4.1H28z"/>
	<path class="st1" d="M32.6,42.9l3-8.6h2.9l3,8.6h-2.3l-0.4-1.5h-3.3l-0.4,1.5H32.6z M35.8,39.7h2.3l-0.9-2.8c0-0.1-0.1-0.2-0.1-0.4
		S37.1,36,37,35.7c-0.1,0.2-0.1,0.4-0.1,0.6s-0.1,0.4-0.1,0.6L35.8,39.7z"/>
	<path class="st1" d="M43.3,42.9V39l-3-4.7H43l1.2,2.2c0,0,0,0,0,0.1c0.1,0.2,0.2,0.5,0.3,0.7c0-0.2,0.1-0.4,0.3-0.6
		c0,0,0-0.1,0-0.1l1.1-2.2h2.7l-3,4.7v3.9H43.3z"/>
</g>
</svg>

