<?xml version="1.0" encoding="utf-8"?>
<!-- Generator: Adobe Illustrator 18.0.0, SVG Export Plug-In . SVG Version: 6.00 Build 0)  -->
<!DOCTYPE svg PUBLIC "-//W3C//DTD SVG 1.1//EN" "http://www.w3.org/Graphics/SVG/1.1/DTD/svg11.dtd">
<svg version="1.1" id="Layer_1" xmlns="http://www.w3.org/2000/svg" xmlns:xlink="http://www.w3.org/1999/xlink" x="0px" y="0px"
	 viewBox="0 0 200 200" enable-background="new 0 0 200 200" xml:space="preserve" width="200px" height="200px">
<circle id="Circle" fill="#B64926" cx="100" cy="100" r="88"/>
<path id="logo" fill="#FFFFFF" d="M141.8,138.7c-6.2-6.4-13.6-11.7-19.7-18.2c-2.7-2.9,1-4.9,2.7-7.3c1.4-2,2.8-4.2,3.8-6.5
	c2-4.6,3-9.6,3-14.9c0-5.4-1-10.4-3.1-15.1c-2-4.7-4.8-8.8-8.3-12.3c-3.5-3.5-7.6-6.3-12.3-8.3c-4.7-2-9.7-3.1-15.1-3.1
	c-5.4,0-10.4,1-15.1,3.1c-4.7,2-8.8,4.8-12.3,8.3c-3.5,3.5-6.3,7.6-8.3,12.3c-2,4.7-3.1,9.7-3.1,15.1c0,5.4,1,10.4,3.1,15.1
	c6.6,15,23.4,26.4,40.1,23.4c2.9-0.5,5.5-2,8.4-0.5c8.1,4.2,15.8,9.1,24.2,12.8c3,1.3,6,2.6,9.2,3.5c1.9,0.6,5.2,1.7,6.5-0.4
	C147.3,142.9,143.4,140.4,141.8,138.7z M92.4,118.6c-15,0-27.2-12.2-27.2-27.2c0-15,12.2-27.2,27.2-27.2s27.2,12.2,27.2,27.2
	C119.6,106.4,107.4,118.6,92.4,118.6z"/>
</svg>
