<?xml version="1.0" encoding="utf-8"?>
<!-- Generator: Adobe Illustrator 18.0.0, SVG Export Plug-In . SVG Version: 6.00 Build 0)  -->
<!DOCTYPE svg PUBLIC "-//W3C//DTD SVG 1.1//EN" "http://www.w3.org/Graphics/SVG/1.1/DTD/svg11.dtd">
<svg version="1.1" id="E_search" xmlns="http://www.w3.org/2000/svg" xmlns:xlink="http://www.w3.org/1999/xlink" x="0px" y="0px"
	 viewBox="0 0 128 128" enable-background="new 0 0 128 128" xml:space="preserve">
<rect id="redbox" x="8" y="9.8" fill="#B64926" width="111.8" height="108.4"/>
<path id="logo" fill="#FFFFFF" d="M96.1,93.7c-4.8-4.9-10.4-9-15.1-14c-2.1-2.2,0.8-3.8,2.1-5.6c1.1-1.5,2.1-3.2,2.9-5
	c1.5-3.5,2.3-7.4,2.3-11.4c0-4.1-0.8-8-2.4-11.6c-1.5-3.6-3.7-6.7-6.4-9.4c-2.7-2.7-5.8-4.8-9.4-6.4c-3.6-1.5-7.4-2.4-11.6-2.4
	s-8,0.8-11.6,2.4c-3.6,1.5-6.7,3.7-9.4,6.4c-2.7,2.7-4.8,5.8-6.4,9.4c-1.5,3.6-2.4,7.4-2.4,11.6s0.8,8,2.4,11.6
	c5.1,11.5,17.9,20.2,30.7,17.9c2.2-0.4,4.2-1.5,6.4-0.4c6.2,3.2,12.1,7,18.6,9.8c2.3,1,4.6,2,7.1,2.7c1.5,0.5,4,1.3,5-0.3
	C100.3,96.9,97.3,95,96.1,93.7z M58.2,78.3c-11.5,0-20.9-9.4-20.9-20.9s9.4-20.9,20.9-20.9S79,45.9,79,57.4
	C79,68.9,69.7,78.3,58.2,78.3z"/>
</svg>
