<?xml version="1.0" encoding="utf-8"?>
<!-- Generator: Adobe Illustrator 18.0.0, SVG Export Plug-In . SVG Version: 6.00 Build 0)  -->
<!DOCTYPE svg PUBLIC "-//W3C//DTD SVG 1.1//EN" "http://www.w3.org/Graphics/SVG/1.1/DTD/svg11.dtd">
<svg version="1.1" id="Layer_1" xmlns="http://www.w3.org/2000/svg" xmlns:xlink="http://www.w3.org/1999/xlink" x="0px" y="0px"
	 viewBox="0 0 128 128" style="enable-background:new 0 0 128 128;" xml:space="preserve" width="200px" height="200px">
<style type="text/css">
	.st0{fill:#468966;}
	.st1{fill:#FFFFFF;}
</style>
<circle id="Circle" class="st0" cx="64" cy="64" r="56.3"/>
<path id="S" class="st1" d="M52.2,72.4c1.9,2.2,3.9,3.9,5.7,4.9c1.9,1.1,3.8,1.6,5.6,1.6c1.7,0,3.2-0.5,4.3-1.4
	c1.1-0.9,1.7-2.1,1.7-3.6c0-1.6-0.5-2.8-1.5-3.7c-1-0.9-3.2-1.8-6.6-2.7c-4.7-1.3-8-2.9-10-4.9c-1.9-2-2.9-4.8-2.9-8.3
	c0-4.6,1.5-8.3,4.6-11.2c3.1-2.9,7-4.3,11.9-4.3c2.6,0,5.1,0.4,7.5,1.1c2.4,0.7,4.6,1.8,6.7,3.2l-4.1,9.4c-1.5-1.3-3-2.2-4.6-2.9
	s-3.1-1-4.6-1c-1.6,0-2.8,0.4-3.8,1.1c-1,0.8-1.5,1.7-1.5,2.9c0,1.2,0.4,2.2,1.3,2.9c0.9,0.7,2.5,1.4,5,2.1l0.6,0.2
	c5.3,1.4,8.8,3,10.5,4.7c1.1,1.2,2,2.6,2.6,4.2c0.6,1.6,0.9,3.5,0.9,5.5c0,5.1-1.7,9.2-5,12.3c-3.3,3.1-7.8,4.6-13.4,4.6
	c-3.3,0-6.4-0.6-9.1-1.7c-2.7-1.1-5.4-2.9-7.9-5.3L52.2,72.4z"/>
</svg>
