<?xml version="1.0" encoding="utf-8"?>
<!-- Generator: Adobe Illustrator 18.0.0, SVG Export Plug-In . SVG Version: 6.00 Build 0)  -->
<!DOCTYPE svg PUBLIC "-//W3C//DTD SVG 1.1//EN" "http://www.w3.org/Graphics/SVG/1.1/DTD/svg11.dtd">
<svg version="1.1" id="Layer_1" xmlns="http://www.w3.org/2000/svg" xmlns:xlink="http://www.w3.org/1999/xlink" x="0px" y="0px"
	 viewBox="0 0 64 64" style="enable-background:new 0 0 64 64;" xml:space="preserve">
<style type="text/css">
	.st0{fill:#468966;}
	.st1{fill:#FFFFFF;}
</style>
<rect x="4" y="4.9" class="st0" width="55.9" height="54.2"/>
<g>
	<path class="st1" d="M25.2,36.8c1.1,1.3,2.2,2.2,3.3,2.8c1.1,0.6,2.2,0.9,3.3,0.9c1,0,1.8-0.3,2.5-0.8c0.6-0.5,1-1.2,1-2.1
		c0-0.9-0.3-1.6-0.8-2.1s-1.8-1-3.8-1.5c-2.7-0.7-4.6-1.7-5.7-2.8s-1.7-2.8-1.7-4.8c0-2.6,0.9-4.8,2.7-6.5c1.8-1.7,4.1-2.5,6.9-2.5
		c1.5,0,3,0.2,4.3,0.6c1.4,0.4,2.7,1,3.9,1.9l-2.4,5.4c-0.9-0.7-1.7-1.3-2.6-1.7c-0.9-0.4-1.8-0.6-2.7-0.6c-0.9,0-1.6,0.2-2.2,0.7
		c-0.6,0.4-0.8,1-0.8,1.7c0,0.7,0.2,1.2,0.7,1.7c0.5,0.4,1.5,0.8,2.9,1.2l0.3,0.1c3.1,0.8,5.1,1.7,6.1,2.7c0.7,0.7,1.2,1.5,1.5,2.4
		s0.5,2,0.5,3.2c0,2.9-1,5.3-2.9,7.1c-1.9,1.8-4.5,2.7-7.7,2.7c-1.9,0-3.7-0.3-5.3-1c-1.6-0.7-3.1-1.7-4.6-3.1L25.2,36.8z"/>
</g>
</svg>
